<svg t="1594378899377" class="icon" viewBox="0 0 1024 1024" version="1.1" xmlns="http://www.w3.org/2000/svg" p-id="2075"
     width="200" height="200">
<path d="M984 552a40 40 0 0 0 0-80h-96V216h96a40 40 0 0 0 0-80h-96V40a40 40 0 0 0-80 0v96H552V40a40 40 0 0 0-80 0v96H216V40a40 40 0 0 0-80 0v96H40a40 40 0 0 0 0 80h96v256H40a40 40 0 0 0 0 80h96v256H40a40 40 0 0 0 0 80h96v96a40 40 0 0 0 80 0v-96h256v96a40 40 0 0 0 80 0v-96h256v96a40 40 0 0 0 80 0v-96h96a40 40 0 0 0 0-80h-96V552z m-176-336v256H552V216z m-592 0h256v256H216z m0 592V552h256v256z m592 0H552V552h256z"
      p-id="2076" fill="#999"></path>
</svg>
