<?xml version="1.0" standalone="no"?><!DOCTYPE svg PUBLIC "-//W3C//DTD SVG 1.1//EN" "http://www.w3.org/Graphics/SVG/1.1/DTD/svg11.dtd"><svg t="1602997947233" class="icon" viewBox="0 0 1024 1024" version="1.1" xmlns="http://www.w3.org/2000/svg" p-id="1243" xmlns:xlink="http://www.w3.org/1999/xlink" width="200" height="200"><defs><style type="text/css"></style></defs><path d="M991.390933 916.3936 776.426667 701.429333c55.825067-71.834667 89.093333-162.097067 89.093333-260.135467 0-234.2752-189.930667-424.2272-424.2272-424.2272C206.996267 17.0656 17.066667 207.0176 17.066667 441.2928c0 234.2976 189.930667 424.2272 424.228267 424.2272 98.0352 0 188.2976-33.269333 260.133333-89.0944l214.964267 214.965333c20.724267 20.7232 54.295467 20.7232 74.9984 0C1012.113067 970.688 1012.113067 937.115733 991.390933 916.3936L991.390933 916.3936zM123.138133 441.2928c0-175.712 142.442667-318.1728 318.155733-318.1728 175.710933 0 318.174933 142.4608 318.174933 318.1728 0 175.714133-142.464 318.176-318.174933 318.176C265.5808 759.4688 123.138133 617.008 123.138133 441.2928L123.138133 441.2928z" p-id="1244" fill="#9f9f9f"></path></svg>