<svg t="1594374392181" class="icon" viewBox="0 0 1024 1024" version="1.1" xmlns="http://www.w3.org/2000/svg" p-id="3827"
     width="200" height="200">
    <path d="M896 32A96 96 0 0 1 992 128v768a96 96 0 0 1-96 96H128A96 96 0 0 1 32 896V128A96 96 0 0 1 128 32h768zM96 896a32 32 0 0 0 32 32h192V704H96v192z m544-192H384v224h256V704z m288 0H704v224h192a32 32 0 0 0 32-32v-192z m0-64V384H704v256h224z m-832 0H320V384H96v256zM640 384H384v256h256V384z m256-288h-192V320h224V128a32 32 0 0 0-32-32z m-576 0H128a32 32 0 0 0-32 32v192H320V96z m320 0H384V320h256V96z"
          p-id="3828" fill="#999"></path>
</svg>
