<svg t="1594908332004" class="icon" viewBox="0 0 1024 1024" version="1.1" xmlns="http://www.w3.org/2000/svg" p-id="2894"
     width="200" height="200">
    <path d="M884.392 970.333H671.887c-23.01 0-41.666-18.656-41.666-41.666 0-23.011 18.656-41.667 41.666-41.667h212.505V691.158c0-23.01 18.656-41.666 41.666-41.666 23.011 0 41.667 18.656 41.667 41.666V887c0 45.959-37.395 83.333-83.333 83.333z m-541.667 0H134.391c-45.949 0-83.333-37.374-83.333-83.333V678.667c0-23.011 18.656-41.667 41.667-41.667s41.667 18.656 41.667 41.667V887h208.333c23.01 0 41.666 18.656 41.666 41.667 0 23.01-18.657 41.666-41.666 41.666z m-250-587.504c-23.01 0-41.667-18.656-41.667-41.667V137c0-45.959 37.384-83.333 83.333-83.333h204.163c23.01 0 41.667 18.657 41.667 41.667S361.564 137 338.554 137H134.391v204.162c0 23.011-18.656 41.667-41.666 41.667z m833.333-8.321c-23.01 0-41.666-18.656-41.666-41.666V137H671.887c-23.01 0-41.666-18.656-41.666-41.667s18.656-41.667 41.666-41.667h212.505c45.938 0 83.333 37.374 83.333 83.333v195.842c0 23.011-18.657 41.667-41.667 41.667z"
          p-id="2895" fill="#999"></path>
</svg>
